<svg width="483" height="101" viewBox="0 0 483 101" fill="none" xmlns="http://www.w3.org/2000/svg">
<path d="M162.095 35.7446C165.625 35.7446 168.741 36.4339 171.443 37.8126C174.145 39.1912 176.241 41.2868 177.73 44.0993C179.274 46.9118 180.046 50.4688 180.046 54.7703V80H172.105V55.6802C172.105 51.4339 171.112 48.2353 169.127 46.0846C167.141 43.9339 164.356 42.8585 160.772 42.8585C158.125 42.8585 155.809 43.41 153.823 44.5129C151.838 45.6159 150.294 47.2427 149.191 49.3934C148.143 51.5442 147.619 54.2188 147.619 57.4173V80H139.678V55.6802C139.678 51.4339 138.685 48.2353 136.7 46.0846C134.77 43.9339 131.985 42.8585 128.345 42.8585C125.753 42.8585 123.465 43.41 121.48 44.5129C119.494 45.6159 117.95 47.2427 116.847 49.3934C115.744 51.5442 115.193 54.2188 115.193 57.4173V80H107.252V36.1582H114.862V47.8217L113.621 44.8438C115 41.9762 117.123 39.7427 119.991 38.1434C122.858 36.5442 126.195 35.7446 130 35.7446C134.191 35.7446 137.803 36.7923 140.836 38.8879C143.869 40.9284 145.855 44.0442 146.792 48.2353L143.566 46.9118C144.889 43.5479 147.206 40.8457 150.514 38.8052C153.823 36.7648 157.684 35.7446 162.095 35.7446ZM221.873 80V70.7353L221.459 68.9982V53.1986C221.459 49.8346 220.466 47.2427 218.481 45.4229C216.551 43.5479 213.628 42.6104 209.713 42.6104C207.121 42.6104 204.584 43.0515 202.102 43.9339C199.621 44.7611 197.525 45.8916 195.816 47.3254L192.507 41.3695C194.768 39.5497 197.47 38.171 200.613 37.2335C203.812 36.2409 207.148 35.7446 210.623 35.7446C216.634 35.7446 221.266 37.206 224.52 40.1287C227.773 43.0515 229.4 47.5184 229.4 53.5295V80H221.873ZM207.479 80.4963C204.225 80.4963 201.358 79.9449 198.876 78.8419C196.45 77.739 194.575 76.2224 193.251 74.2923C191.928 72.307 191.266 70.0735 191.266 67.5919C191.266 65.2206 191.817 63.0699 192.92 61.1397C194.078 59.2096 195.926 57.6655 198.463 56.5074C201.055 55.3493 204.529 54.7703 208.885 54.7703H222.782V60.478H209.216C205.246 60.478 202.571 61.1397 201.192 62.4633C199.814 63.7868 199.124 65.3861 199.124 67.261C199.124 69.4118 199.979 71.1489 201.689 72.4724C203.398 73.7408 205.77 74.375 208.803 74.375C211.781 74.375 214.373 73.7132 216.578 72.3897C218.839 71.0662 220.466 69.136 221.459 66.5993L223.031 72.0588C221.983 74.6507 220.135 76.7188 217.488 78.2629C214.841 79.7518 211.505 80.4963 207.479 80.4963ZM259.151 80.4963C254.739 80.4963 251.32 79.3107 248.894 76.9393C246.467 74.568 245.254 71.1765 245.254 66.7647V26.5626H253.195V66.4338C253.195 68.8052 253.774 70.625 254.932 71.8934C256.145 73.1618 257.855 73.796 260.061 73.796C262.543 73.796 264.611 73.1066 266.265 71.728L268.747 77.4357C267.533 78.4835 266.072 79.2555 264.362 79.7518C262.708 80.2482 260.971 80.4963 259.151 80.4963ZM237.809 42.6931V36.1582H265.769V42.6931H237.809ZM292.352 80.4963C287.941 80.4963 284.521 79.3107 282.095 76.9393C279.668 74.568 278.455 71.1765 278.455 66.7647V26.5626H286.396V66.4338C286.396 68.8052 286.975 70.625 288.134 71.8934C289.347 73.1618 291.056 73.796 293.262 73.796C295.744 73.796 297.812 73.1066 299.466 71.728L301.948 77.4357C300.735 78.4835 299.273 79.2555 297.564 79.7518C295.909 80.2482 294.172 80.4963 292.352 80.4963ZM271.01 42.6931V36.1582H298.97V42.6931H271.01ZM329.617 80.4963C324.929 80.4963 320.793 79.5313 317.208 77.6011C313.679 75.671 310.922 73.0239 308.936 69.6599C307.006 66.296 306.041 62.4357 306.041 58.0791C306.041 53.7225 306.979 49.8622 308.854 46.4982C310.784 43.1343 313.403 40.5148 316.712 38.6398C320.076 36.7096 323.854 35.7446 328.045 35.7446C332.291 35.7446 336.041 36.6821 339.295 38.5571C342.549 40.432 345.085 43.0791 346.905 46.4982C348.78 49.8622 349.718 53.8052 349.718 58.3272C349.718 58.6581 349.69 59.0442 349.635 59.4853C349.635 59.9265 349.607 60.3401 349.552 60.7261H312.245V55.0184H345.416L342.19 57.0037C342.245 54.1912 341.666 51.682 340.453 49.4762C339.24 47.2703 337.558 45.5607 335.407 44.3475C333.311 43.0791 330.857 42.4449 328.045 42.4449C325.288 42.4449 322.833 43.0791 320.683 44.3475C318.532 45.5607 316.85 47.2978 315.637 49.5589C314.424 51.7648 313.817 54.3015 313.817 57.1692V58.4927C313.817 61.4155 314.479 64.035 315.802 66.3511C317.181 68.6122 319.083 70.3769 321.51 71.6452C323.936 72.9136 326.721 73.5478 329.865 73.5478C332.457 73.5478 334.8 73.1066 336.896 72.2243C339.047 71.3419 340.922 70.0184 342.521 68.2537L346.905 73.3824C344.92 75.6985 342.438 77.4632 339.46 78.6765C336.537 79.8897 333.256 80.4963 329.617 80.4963ZM360.745 80V36.1582H368.355V48.0699L367.61 45.092C368.824 42.0589 370.864 39.7427 373.732 38.1434C376.599 36.5442 380.129 35.7446 384.32 35.7446V43.4376C383.989 43.3824 383.658 43.3548 383.327 43.3548C383.052 43.3548 382.776 43.3548 382.5 43.3548C378.254 43.3548 374.89 44.6232 372.408 47.16C369.927 49.6967 368.686 53.364 368.686 58.1618V80H360.745ZM444.103 80V70.7353L443.689 68.9982V53.1986C443.689 49.8346 442.697 47.2427 440.711 45.4229C438.781 43.5479 435.858 42.6104 431.943 42.6104C429.351 42.6104 426.814 43.0515 424.333 43.9339C421.851 44.7611 419.756 45.8916 418.046 47.3254L414.737 41.3695C416.998 39.5497 419.7 38.171 422.844 37.2335C426.042 36.2409 429.379 35.7446 432.853 35.7446C438.864 35.7446 443.496 37.206 446.75 40.1287C450.004 43.0515 451.631 47.5184 451.631 53.5295V80H444.103ZM429.71 80.4963C426.456 80.4963 423.588 79.9449 421.107 78.8419C418.68 77.739 416.805 76.2224 415.482 74.2923C414.158 72.307 413.496 70.0735 413.496 67.5919C413.496 65.2206 414.048 63.0699 415.151 61.1397C416.309 59.2096 418.156 57.6655 420.693 56.5074C423.285 55.3493 426.759 54.7703 431.116 54.7703H445.013V60.478H431.447C427.476 60.478 424.802 61.1397 423.423 62.4633C422.044 63.7868 421.355 65.3861 421.355 67.261C421.355 69.4118 422.21 71.1489 423.919 72.4724C425.629 73.7408 428 74.375 431.033 74.375C434.011 74.375 436.603 73.7132 438.809 72.3897C441.07 71.0662 442.697 69.136 443.689 66.5993L445.261 72.0588C444.213 74.6507 442.366 76.7188 439.719 78.2629C437.072 79.7518 433.735 80.4963 429.71 80.4963ZM466.326 80V36.1582H474.267V80H466.326ZM470.297 27.7207C468.753 27.7207 467.457 27.2243 466.409 26.2317C465.416 25.2391 464.92 24.0258 464.92 22.592C464.92 21.103 465.416 19.8622 466.409 18.8696C467.457 17.8769 468.753 17.3806 470.297 17.3806C471.841 17.3806 473.109 17.8769 474.102 18.8696C475.15 19.8071 475.674 20.9927 475.674 22.4266C475.674 23.9155 475.177 25.1839 474.185 26.2317C473.192 27.2243 471.896 27.7207 470.297 27.7207Z" fill="white"/>
<mask id="mask0_3892_4878" style="mask-type:alpha" maskUnits="userSpaceOnUse" x="1" y="11" width="86" height="86">
<rect y="53.9922" width="61.5734" height="61.5734" rx="2.54242" transform="rotate(-45 0 53.9922)" fill="#3EFFA5"/>
</mask>
<g mask="url(#mask0_3892_4878)">
<rect y="53.9922" width="61.5734" height="61.5734" rx="2.54242" transform="rotate(-45 0 53.9922)" fill="#8BF4F7"/>
<rect x="55.9421" y="21.6602" width="46.4169" height="46.4169" rx="2.54242" transform="rotate(45 55.9421 21.6602)" fill="#C4FDFF"/>
<rect x="67.7831" y="34.2383" width="28.4751" height="26.5697" rx="2.54242" transform="rotate(45 67.7831 34.2383)" fill="#E9FEFF"/>
</g>
</svg>
