<svg width="486" height="101" viewBox="0 0 486 101" fill="none" xmlns="http://www.w3.org/2000/svg">
<path d="M165.095 35.7446C168.625 35.7446 171.741 36.4339 174.443 37.8126C177.145 39.1912 179.241 41.2868 180.73 44.0993C182.274 46.9118 183.046 50.4688 183.046 54.7703V80H175.105V55.6802C175.105 51.4339 174.112 48.2353 172.127 46.0846C170.141 43.9339 167.356 42.8585 163.772 42.8585C161.125 42.8585 158.809 43.41 156.823 44.5129C154.838 45.6159 153.294 47.2427 152.191 49.3934C151.143 51.5442 150.619 54.2188 150.619 57.4173V80H142.678V55.6802C142.678 51.4339 141.685 48.2353 139.7 46.0846C137.77 43.9339 134.985 42.8585 131.345 42.8585C128.753 42.8585 126.465 43.41 124.48 44.5129C122.494 45.6159 120.95 47.2427 119.847 49.3934C118.744 51.5442 118.193 54.2188 118.193 57.4173V80H110.252V36.1582H117.862V47.8217L116.621 44.8438C118 41.9762 120.123 39.7427 122.991 38.1434C125.858 36.5442 129.195 35.7446 133 35.7446C137.191 35.7446 140.803 36.7923 143.836 38.8879C146.869 40.9284 148.855 44.0442 149.792 48.2353L146.566 46.9118C147.889 43.5479 150.206 40.8457 153.514 38.8052C156.823 36.7648 160.684 35.7446 165.095 35.7446ZM224.873 80V70.7353L224.459 68.9982V53.1986C224.459 49.8346 223.466 47.2427 221.481 45.4229C219.551 43.5479 216.628 42.6104 212.713 42.6104C210.121 42.6104 207.584 43.0515 205.102 43.9339C202.621 44.7611 200.525 45.8916 198.816 47.3254L195.507 41.3695C197.768 39.5497 200.47 38.171 203.613 37.2335C206.812 36.2409 210.148 35.7446 213.623 35.7446C219.634 35.7446 224.266 37.206 227.52 40.1287C230.773 43.0515 232.4 47.5184 232.4 53.5295V80H224.873ZM210.479 80.4963C207.225 80.4963 204.358 79.9449 201.876 78.8419C199.45 77.739 197.575 76.2224 196.251 74.2923C194.928 72.307 194.266 70.0735 194.266 67.5919C194.266 65.2206 194.817 63.0699 195.92 61.1397C197.078 59.2096 198.926 57.6655 201.463 56.5074C204.055 55.3493 207.529 54.7703 211.885 54.7703H225.782V60.478H212.216C208.246 60.478 205.571 61.1397 204.192 62.4633C202.814 63.7868 202.124 65.3861 202.124 67.261C202.124 69.4118 202.979 71.1489 204.689 72.4724C206.398 73.7408 208.77 74.375 211.803 74.375C214.781 74.375 217.373 73.7132 219.578 72.3897C221.839 71.0662 223.466 69.136 224.459 66.5993L226.031 72.0588C224.983 74.6507 223.135 76.7188 220.488 78.2629C217.841 79.7518 214.505 80.4963 210.479 80.4963ZM262.151 80.4963C257.739 80.4963 254.32 79.3107 251.894 76.9393C249.467 74.568 248.254 71.1765 248.254 66.7647V26.5626H256.195V66.4338C256.195 68.8052 256.774 70.625 257.932 71.8934C259.145 73.1618 260.855 73.796 263.061 73.796C265.543 73.796 267.611 73.1066 269.265 71.728L271.747 77.4357C270.533 78.4835 269.072 79.2555 267.362 79.7518C265.708 80.2482 263.971 80.4963 262.151 80.4963ZM240.809 42.6931V36.1582H268.769V42.6931H240.809ZM295.352 80.4963C290.941 80.4963 287.521 79.3107 285.095 76.9393C282.668 74.568 281.455 71.1765 281.455 66.7647V26.5626H289.396V66.4338C289.396 68.8052 289.975 70.625 291.134 71.8934C292.347 73.1618 294.056 73.796 296.262 73.796C298.744 73.796 300.812 73.1066 302.466 71.728L304.948 77.4357C303.735 78.4835 302.273 79.2555 300.564 79.7518C298.909 80.2482 297.172 80.4963 295.352 80.4963ZM274.01 42.6931V36.1582H301.97V42.6931H274.01ZM332.617 80.4963C327.929 80.4963 323.793 79.5313 320.208 77.6011C316.679 75.671 313.922 73.0239 311.936 69.6599C310.006 66.296 309.041 62.4357 309.041 58.0791C309.041 53.7225 309.979 49.8622 311.854 46.4982C313.784 43.1343 316.403 40.5148 319.712 38.6398C323.076 36.7096 326.854 35.7446 331.045 35.7446C335.291 35.7446 339.041 36.6821 342.295 38.5571C345.549 40.432 348.085 43.0791 349.905 46.4982C351.78 49.8622 352.718 53.8052 352.718 58.3272C352.718 58.6581 352.69 59.0442 352.635 59.4853C352.635 59.9265 352.607 60.3401 352.552 60.7261H315.245V55.0184H348.416L345.19 57.0037C345.245 54.1912 344.666 51.682 343.453 49.4762C342.24 47.2703 340.558 45.5607 338.407 44.3475C336.311 43.0791 333.857 42.4449 331.045 42.4449C328.288 42.4449 325.833 43.0791 323.683 44.3475C321.532 45.5607 319.85 47.2978 318.637 49.5589C317.424 51.7648 316.817 54.3015 316.817 57.1692V58.4927C316.817 61.4155 317.479 64.035 318.802 66.3511C320.181 68.6122 322.083 70.3769 324.51 71.6452C326.936 72.9136 329.721 73.5478 332.865 73.5478C335.457 73.5478 337.8 73.1066 339.896 72.2243C342.047 71.3419 343.922 70.0184 345.521 68.2537L349.905 73.3824C347.92 75.6985 345.438 77.4632 342.46 78.6765C339.537 79.8897 336.256 80.4963 332.617 80.4963ZM363.745 80V36.1582H371.355V48.0699L370.61 45.092C371.824 42.0589 373.864 39.7427 376.732 38.1434C379.599 36.5442 383.129 35.7446 387.32 35.7446V43.4376C386.989 43.3824 386.658 43.3548 386.327 43.3548C386.052 43.3548 385.776 43.3548 385.5 43.3548C381.254 43.3548 377.89 44.6232 375.408 47.16C372.927 49.6967 371.686 53.364 371.686 58.1618V80H363.745ZM447.103 80V70.7353L446.689 68.9982V53.1986C446.689 49.8346 445.697 47.2427 443.711 45.4229C441.781 43.5479 438.858 42.6104 434.943 42.6104C432.351 42.6104 429.814 43.0515 427.333 43.9339C424.851 44.7611 422.756 45.8916 421.046 47.3254L417.737 41.3695C419.998 39.5497 422.7 38.171 425.844 37.2335C429.042 36.2409 432.379 35.7446 435.853 35.7446C441.864 35.7446 446.496 37.206 449.75 40.1287C453.004 43.0515 454.631 47.5184 454.631 53.5295V80H447.103ZM432.71 80.4963C429.456 80.4963 426.588 79.9449 424.107 78.8419C421.68 77.739 419.805 76.2224 418.482 74.2923C417.158 72.307 416.496 70.0735 416.496 67.5919C416.496 65.2206 417.048 63.0699 418.151 61.1397C419.309 59.2096 421.156 57.6655 423.693 56.5074C426.285 55.3493 429.759 54.7703 434.116 54.7703H448.013V60.478H434.447C430.476 60.478 427.802 61.1397 426.423 62.4633C425.044 63.7868 424.355 65.3861 424.355 67.261C424.355 69.4118 425.21 71.1489 426.919 72.4724C428.629 73.7408 431 74.375 434.033 74.375C437.011 74.375 439.603 73.7132 441.809 72.3897C444.07 71.0662 445.697 69.136 446.689 66.5993L448.261 72.0588C447.213 74.6507 445.366 76.7188 442.719 78.2629C440.072 79.7518 436.735 80.4963 432.71 80.4963ZM469.326 80V36.1582H477.267V80H469.326ZM473.297 27.7207C471.753 27.7207 470.457 27.2243 469.409 26.2317C468.416 25.2391 467.92 24.0258 467.92 22.592C467.92 21.103 468.416 19.8622 469.409 18.8696C470.457 17.8769 471.753 17.3806 473.297 17.3806C474.841 17.3806 476.109 17.8769 477.102 18.8696C478.15 19.8071 478.674 20.9927 478.674 22.4266C478.674 23.9155 478.177 25.1839 477.185 26.2317C476.192 27.2243 474.896 27.7207 473.297 27.7207Z" fill="white"/>
<mask id="mask0_3960_5832" style="mask-type:alpha" maskUnits="userSpaceOnUse" x="0" y="10" width="86" height="78">
<rect y="10" width="85.5484" height="78" rx="8.85641" fill="#3EFFA5"/>
</mask>
<g mask="url(#mask0_3960_5832)">
<path d="M-0.0317901 18.9329C-0.0317899 12.8105 6.03185 8.53483 11.7987 10.5908L48.7334 23.7586C51.1914 24.635 53.9109 24.3826 56.1658 23.0689L71.5326 14.1162C77.3993 10.6983 84.7719 14.8816 84.8468 21.6709L85.4814 79.1931C85.5358 84.1223 81.555 88.1472 76.6255 88.1472L8.82461 88.1472C3.93335 88.1472 -0.0317915 84.1821 -0.0317914 79.2908L-0.0317901 18.9329Z" fill="#06E1E7"/>
<path d="M66.5261 42.42C71.3801 38.69 78.4034 42.1505 78.4034 48.2721L78.4034 92.3357C78.4034 96.4118 75.0991 99.7161 71.0231 99.7161L19.3607 99.7161C15.2846 99.7161 11.9803 96.4118 11.9803 92.3357L11.9803 44.7605C11.9803 39.3914 17.5309 35.8191 22.4178 38.0431L49.66 50.441C52.1444 51.5717 55.0498 51.2388 57.2141 49.5757L66.5261 42.42Z" fill="#8BF4F7"/>
<path d="M61.4971 63.1713C64.383 60.7766 68.753 62.829 68.753 66.5791L68.753 94.3473C68.753 96.793 66.7704 98.7755 64.3248 98.7755L36.2795 98.7755C33.8339 98.7755 31.8513 96.7929 31.8513 94.3473L31.8513 64.3154C31.8513 61.0235 35.3155 58.8825 38.2598 60.3547L52.2935 67.3715C53.8641 68.1568 55.7503 67.9399 57.1016 66.8186L61.4971 63.1713Z" fill="#E9FEFF"/>
</g>
</svg>
